<svg xmlns="http://www.w3.org/2000/svg" viewBox="0 0 695.4 512"><path d="M11.1 12s107-1 131.5.5 63.5.5 69.5.5 31-4 51.5-3.5 54-2 54-2 3 1 7.5 2 20.5 1.5 28 2 94 .5 94 .5 7.5 2 13 1.5 7 .2 17-1c11.9-1.5 90-.5 90-.5s7-1.5 11-1.5 43 0 50.5-.5 52.5-3.5 58.5-2c0 0-1 96.5-.5 120.5s.5 219.5.5 219.5-1.5 38.5-.5 44 1 29 1 29v39.5l.5 39-156.5 1.5s-18.5-1.5-22.5.5-11.5 2-11.5 2-288-2-296.5-1.5-58.5 3-58.5 3l-2-4s-49.5-1.5-57-.5-40 2.5-44.5 2.5-25 .5-25 .5-7-241.5-6-246 2-14.5 1-21-3.5-12.5-2-15 2-14.5 2-26 2-183.5 2-183.5z" fill="#1a1a18"/></svg>