<svg xmlns="http://www.w3.org/2000/svg" viewBox="0 0 50 50"><ellipse cx="35.72" cy="24.7" rx="1.83" ry="1.82"/><path d="M22.92 24.34c-.1.1-.18.23-.3.38.12.15.22.29.33.41 3.03 3.02 6.07 6.04 9.1 9.08.34.34.59.34.91.03.65-.64 1.32-1.27 1.98-1.92.53-.52.53-.57 0-1.1-2.04-2.04-4.08-4.09-6.14-6.11-.37-.36-.34-.57.01-.91 2.07-2.04 4.12-4.1 6.19-6.14.34-.33.36-.56.01-.88-.68-.64-1.34-1.31-1.99-1.98-.32-.33-.57-.35-.91-.01-3.06 3.05-6.13 6.1-9.19 9.15z"/><path d="M12.23 24.48c-.12.13-.12.33 0 .46l19.26 20.24c.06.07.15.11.25.11h5.43c.3 0 .45-.36.25-.57L18.57 24.91a.339.339 0 010-.46L36.98 4.67c.2-.22.05-.57-.25-.57h-5.38a.34.34 0 00-.25.11L12.23 24.48z"/></svg>