<svg xmlns="http://www.w3.org/2000/svg" viewBox="-226 228 58 58"><path d="M-175.3 276.2c4.5-5.1 7.3-11.9 7.3-19.2 0-7.7-3-14.6-7.9-19.8-5.1-5.4-12.2-8.9-20.1-9.1h-2c-7.9.3-15 3.7-20.1 9.1-4.9 5.2-7.9 12.2-7.9 19.8 0 7.4 2.8 14.1 7.3 19.2l.1.1c5.1 5.7 12.4 9.4 20.6 9.7h2c8.2-.3 15.5-4 20.7-9.8-.1.1 0 .1 0 0zM-224 258h12c.1 4.2.9 8.4 2.4 12.2-2.8 1-5.6 2.4-8.1 4.1-3.7-4.4-6-10.1-6.3-16.3zm6.9-19c2.5 1.6 5.1 2.9 7.9 3.9-1.7 4.1-2.6 8.5-2.8 13.1h-12c.3-6.5 2.8-12.4 6.9-17zm47.1 17h-12c-.1-4.6-1.1-9-2.8-13.1 2.8-1 5.4-2.3 7.9-3.9 4.1 4.6 6.6 10.5 6.9 17zm-28-13c-2.9-.1-5.7-.5-8.5-1.3 2-4.2 4.9-7.9 8.5-11V243zm0 2v11h-12c.1-4.3 1-8.6 2.7-12.5 3 .9 6.1 1.4 9.3 1.5zm2 0c3.2-.1 6.3-.6 9.3-1.4 1.6 3.9 2.5 8.1 2.7 12.5h-12V245zm0-2v-12.3c3.6 3.1 6.4 6.9 8.5 11-2.8.7-5.6 1.2-8.5 1.3zm10.4-1.9c-1.9-4-4.6-7.7-7.9-10.8 5.9.8 11.1 3.4 15.2 7.3-2.3 1.4-4.7 2.6-7.3 3.5zm-22.8 0c-2.5-.9-5-2.1-7.3-3.5 4.1-3.9 9.3-6.6 15.2-7.3-3.3 3.1-6 6.7-7.9 10.8zM-210 258h12v10a40 40 0 00-9.7 1.5c-1.4-3.6-2.2-7.5-2.3-11.5zm12 12v13.3c-3.8-3.3-6.8-7.4-8.9-11.9 2.9-.8 5.9-1.3 8.9-1.4zm2 13.4V270c3 .1 6 .6 8.9 1.4-2.1 4.5-5.1 8.6-8.9 12zm0-15.4v-10h12c-.1 4-.9 7.9-2.3 11.6-3.2-1-6.4-1.5-9.7-1.6zm14-10h12c-.2 6.2-2.6 11.9-6.3 16.3-2.5-1.7-5.3-3.1-8.1-4.1 1.4-3.8 2.3-8 2.4-12.2zm-34.3 17.8c2.4-1.6 4.9-2.8 7.5-3.8 1.9 4.4 4.7 8.3 8.3 11.7-6.2-.7-11.7-3.6-15.8-7.9zm22.8 8c3.5-3.4 6.3-7.3 8.3-11.7 2.6.9 5.2 2.2 7.5 3.8-4.1 4.2-9.6 7.1-15.8 7.9z"/></svg>