<svg xmlns="http://www.w3.org/2000/svg" viewBox="0 0 512 512"><path d="M309.3 330.7H96c0-29.4-23.9-53.3-53.3-53.3V192c29.4 0 53.3-23.9 53.3-53.3h256c0 29.4 23.9 53.3 53.3 53.3v21.3c0 5.9 4.8 10.7 10.7 10.7 5.9 0 10.7-4.8 10.7-10.7V128c0-5.9-4.8-10.7-10.7-10.7H32c-5.9 0-10.7 4.8-10.7 10.7v213.3c0 5.9 4.8 10.7 10.7 10.7h277.3c5.9 0 10.7-4.8 10.7-10.7s-4.8-10.6-10.7-10.6zm96-160c-17.7 0-32-14.3-32-32h32v32zm-362.6-32h32c0 17.7-14.3 32-32 32v-32zm0 160c17.7 0 32 14.3 32 32h-32v-32z"/><path d="M416 245.3c-42.6 0-74.7 18.3-74.7 42.7v85.3c0 24.3 32.1 42.7 74.7 42.7s74.7-18.3 74.7-42.7V288c0-24.3-32.1-42.7-74.7-42.7zm53.3 85.4c0 8.7-20.8 21.3-53.3 21.3s-53.3-12.6-53.3-21.3v-12.2c16.5 8.5 34.8 12.8 53.3 12.2 18.5.5 36.9-3.7 53.3-12.2v12.2zm-53.3-64c32.6 0 53.3 12.6 53.3 21.3 0 8.7-20.8 21.3-53.3 21.3s-53.3-12.6-53.3-21.3c0-8.7 20.7-21.3 53.3-21.3zm0 128c-32.6 0-53.3-12.6-53.3-21.3v-12.2c16.5 8.5 34.8 12.8 53.3 12.2 18.5.5 36.9-3.7 53.3-12.2v12.2c0 8.6-20.7 21.3-53.3 21.3zm-245.3-160c0 29.5 23.9 53.3 53.3 53.3s53.3-23.9 53.3-53.3-23.9-53.3-53.3-53.3-53.3 23.8-53.3 53.3zm85.3 0c0 17.7-14.3 32-32 32s-32-14.3-32-32 14.3-32 32-32 32 14.3 32 32z"/></svg>