<svg xmlns="http://www.w3.org/2000/svg" viewBox="0 0 512 512"><path d="M493 241.5c-12.9-20.1-31.1-36.1-52.7-46.5 14.2-14.7 22-33.8 22-54.2 0-43.2-35.1-78.3-78.3-78.3-14.3 0-28.3 3.9-40.6 11.3-4.7 2.9-6.3 9-3.4 13.8 2.9 4.7 9 6.3 13.8 3.4 9.2-5.5 19.6-8.5 30.2-8.5 32.1 0 58.2 26.1 58.2 58.2 0 19.8-9.9 38-26.5 48.8-13.8 9.1-31.7 11.8-47.8 7.2-2.6-.7-5.3-.4-7.6.9-2.4 1.3-4.1 3.4-4.8 6-1.5 5.3 1.6 10.9 6.9 12.4 7 2 14.3 3 21.6 3 13.1 0 26.3-3.5 38-10.1 21 7.7 38.8 21.4 51.6 39.6 13 18.4 19.8 40.2 19.8 62.8v41.2h-75c-6.4-56.2-41.9-105.6-93-129.5 16.7-17.8 25.9-40.9 25.9-65.2 0-25.4-9.9-49.4-28-67.4-18-18-42-28-67.4-28-52.6 0-95.4 42.8-95.4 95.4 0 24.4 9.2 47.5 25.9 65.2-17.3 8.1-32.8 19-46.3 32.4-26.5 26.6-42.7 60.1-46.8 97.1H18.6v-41.2c0-29.1 11.4-56.6 32-77.4 11-10.9 24.6-19.6 39.5-25.1 11.8 6.6 24.9 10.1 38 10.1 7.3 0 14.6-1 21.6-3 5.3-1.5 8.4-7.1 6.9-12.4-.7-2.6-2.4-4.7-4.8-6-2.3-1.3-5.1-1.6-7.6-.9-16.1 4.6-34 1.9-47.9-7.2-16.6-10.8-26.5-29-26.5-48.8 0-32.1 26.1-58.2 58.2-58.2 10.6 0 21.1 2.9 30.2 8.5 4.7 2.8 10.9 1.3 13.8-3.4 2.9-4.7 1.3-10.9-3.4-13.8-12.3-7.4-26.3-11.3-40.6-11.3-43.2 0-78.3 35.1-78.3 78.3 0 20.3 7.8 39.5 21.9 54.1-13.1 6.3-24.9 14.7-35.2 25C12 244.5-1.5 277-1.5 311.5v51.2c0 5.5 4.5 10 10 10h83.8v66.8c0 5.5 4.5 10 10 10h307.2c5.5 0 10-4.5 10-10v-66.8h83.8c5.5 0 10-4.5 10-10v-51.2c.2-25-6.9-49.2-20.3-70zM256 82.6c41.5 0 75.3 33.8 75.3 75.3s-33.8 75.3-75.3 75.3-75.3-33.8-75.3-75.3 33.8-75.3 75.3-75.3zm-52.2 155c15.5 10.2 33.6 15.6 52.2 15.6s36.7-5.4 52.2-15.6c26.8 10.5 49.6 28.5 66 52.3 16.6 24 25.3 52.2 25.3 81.3v58.2H112.4v-58.2c0-38.3 14.9-74.3 42-101.5 13.9-13.8 30.9-24.8 49.4-32.1z"/></svg>