<svg xmlns="http://www.w3.org/2000/svg" viewBox="0 0 76.96 85.6"><g data-name="Layer 2"><path d="M7.36 85.6a7.31 7.31 0 01-3.66-.94A7.91 7.91 0 010 77.5V8.11A7.93 7.93 0 013.71.93c2.45-1.4 5.68-1.21 8.64.52l21.87 12.3c4.9 2.85 12.57 7.32 17.16 10l21.1 12.31c2.89 1.69 4.52 4.07 4.52 6.68s-1.66 5.1-4.56 6.8L51.18 61.85c-2.57 1.51-6.11 3.54-9.53 5.51C38.74 69 36 70.6 33.86 71.85L12.35 84.16a9.91 9.91 0 01-4.99 1.44zM7.35 4a3.27 3.27 0 00-1.64.41A4 4 0 004 8.11V77.5a4 4 0 001.68 3.67c1.19.69 2.92.5 4.63-.49l21.5-12.32 7.8-4.5c3.42-2 7-4 9.52-5.48l21.24-12.32c1.62-1 2.56-2.16 2.56-3.31s-.9-2.28-2.48-3.2L49.34 27.24c-4.58-2.69-12.24-7.16-17.12-10L10.33 4.93A6 6 0 007.35 4z" fill="#010101" data-name="Layer 1"/></g></svg>