<svg xmlns="http://www.w3.org/2000/svg" viewBox="0 0 730.98 55.7"><path d="M87.8 54.47L69.7 30.71v23.75h-9.17L60.45.56h19.74c2.62 0 5.09.42 7.41 1.27 2.32.85 4.35 2.06 6.1 3.65 1.75 1.53 3.08 3.29 4.01 5.28.93 1.99 1.39 4.08 1.39 6.27 0 3.33-1.07 6.39-3.19 9.17-1.86 2.35-4.15 4.04-6.88 5.08-.98.38-2.12.71-3.4.98-1.28.27-2.23.41-2.83.41l16.38 21.79H87.8zM69.7 9.83v14.5h8.03c3.22 0 5.79-.44 7.7-1.31 1.2-.49 2.24-1.28 3.11-2.38.87-1.09 1.31-2.29 1.31-3.6 0-1.8-.76-3.38-2.29-4.75-1.8-1.64-4.26-2.46-7.37-2.46H69.7zm109.51 44.64V.57h33.99v9.26h-24.81v13.02h18.75v9.26h-18.75v22.36zm54.47 0V.57h33.99v9.26h-24.81v13.02h18.75v9.26h-18.75v22.36zM289.05.57h9.26v53.9h-9.26zm56.76 54.39c-4.91 0-9.46-1.24-13.64-3.73-4.18-2.48-7.48-5.83-9.91-10.03-2.43-4.2-3.65-8.79-3.65-13.76 0-4.97 1.21-9.56 3.65-13.76 2.43-4.2 5.73-7.53 9.91-9.99S340.9 0 345.81 0c3.82 0 7.49.78 11.02 2.33a26.19 26.19 0 019.13 6.68l-6.8 6.14c-1.75-1.91-3.78-3.39-6.1-4.42a17.546 17.546 0 00-7.25-1.56c-3.28 0-6.29.82-9.05 2.46-2.76 1.64-4.94 3.86-6.55 6.67-1.61 2.81-2.42 5.86-2.42 9.13s.8 6.32 2.42 9.13c1.61 2.81 3.81 5.05 6.59 6.72 2.79 1.67 5.79 2.5 9.01 2.5 2.73 0 5.31-.6 7.74-1.8 2.43-1.2 4.52-2.87 6.27-5l7.21 5.73a27.105 27.105 0 01-9.42 7.54c-3.72 1.81-7.65 2.71-11.8 2.71m81.5-.49h-11.39l-14.66-19.99-15.23 21.22V.57h9.17v26.38L414.21.57h11.3l-18.68 25.97zM609.1.57v9.26h-16.21v44.64h-9.18V9.83h-16.14V.57zm40.63 54.39c-4.92 0-9.46-1.24-13.64-3.73-4.18-2.48-7.48-5.83-9.91-10.03-2.43-4.2-3.65-8.79-3.65-13.76 0-4.97 1.22-9.56 3.65-13.76 2.43-4.2 5.73-7.53 9.91-9.99S644.81 0 649.73 0c3.82 0 7.49.78 11.02 2.33a26.19 26.19 0 019.13 6.68l-6.8 6.14c-1.75-1.91-3.78-3.39-6.1-4.42a17.546 17.546 0 00-7.25-1.56c-3.28 0-6.29.82-9.05 2.46-2.76 1.64-4.94 3.86-6.55 6.67-1.61 2.81-2.42 5.86-2.42 9.13s.8 6.32 2.42 9.13c1.61 2.81 3.81 5.05 6.59 6.72a17.2 17.2 0 009.01 2.5c2.73 0 5.31-.6 7.74-1.8 2.43-1.2 4.52-2.87 6.27-5l7.21 5.73a27.105 27.105 0 01-9.42 7.54c-3.72 1.81-7.65 2.71-11.8 2.71m71.99-22.85H699.2v22.36h-9.17V.57h9.17v22.28h22.52V.57h9.18l.08 53.9h-9.26zM136.87.57l-24.98 53.9h10.15l14.58-31.54 13.93 31.54h10.07zm401.1 0l-24.99 53.9h10.16l14.58-31.54 13.92 31.54h10.08zm-25.92.21h-10.16l-14.58 31.53-5.83-13.21L489.97.78h-10.16l-3.28 7.11-3.14-7.11h-10.08l8.05 18.27-6.13 13.26L451.31.78h-10.08l23.76 53.89 11.31-24.41 10.77 24.41zM0 .57v9.26h16.14v44.64h9.17V9.83h16.22V.57z"/></svg>